mtllib materials.mtl
v 0.1249993 0.01199949 -0.02599943
v -0.0003432035 0.01199889 -0.01445915
v -0.0003426075 -0.1880008 -0.01445913
v 0.1249999 -0.1880003 -0.02599943
v -0.05368274 0.01199937 0.01223885
v -0.05368221 -0.1880006 0.01223888
v 0.1165566 0.01199985 -0.02608897
v 0.1165572 -0.1880002 -0.02608891
v -0.1008542 0.01199985 -0.03614648
v -0.1008534 -0.1880004 -0.03614645
v -0.118254 0.01199985 -0.03349947
v -0.1182534 -0.1880002 -0.03349945
v -0.1250008 0.01199973 -0.02599938
v -0.1250001 -0.1880003 -0.02599938
v -0.1082539 0.01199973 0.09150068
v -0.1082532 -0.1880003 0.09150065
v -0.06250072 0.01199973 0.1775166
v -0.0625 -0.1880003 0.1775166
v -6.556511E-07 0.01199973 0.2090007
v 0 -0.1880003 0.2090006
v 0.06249931 0.01199973 0.1775166
v 0.06249997 -0.1880003 0.1775166
v 0.1082525 0.01199949 0.09150055
v 0.1082532 -0.1880003 0.09150052
v 0.1250002 -0.188 -0.02600013
v 0.1082534 -0.188 -0.1435001
v 0.1082529 -1.528 -0.1435001
v 0.1249998 -1.528 -0.02600013
v 0.06250024 -0.188 -0.2295161
v 0.06249976 -1.528 -0.2295161
v 2.384186E-07 -0.188 -0.2610002
v -2.384186E-07 -1.528 -0.2610002
v -0.06249976 -0.188 -0.2295161
v -0.06250024 -1.528 -0.2295161
v -0.1082529 -0.188 -0.1435002
v -0.1082534 -1.528 -0.1435002
v -0.1249998 -0.188 -0.02600013
v -0.1250002 -1.528 -0.02600013
v -0.1082529 -0.188 0.09149991
v -0.1082534 -1.528 0.09149991
v -0.06249976 -0.188 0.1775158
v -0.06250024 -1.528 0.1775158
v 2.384186E-07 -0.188 0.2089999
v -2.384186E-07 -1.528 0.2089999
v 0.06250021 -0.188 0.1775159
v 0.06249976 -1.528 0.1775159
v 0.1082534 -0.188 0.09149982
v 0.108253 -1.528 0.09149982
v -0.1249993 -0.05800021 -0.0260003
v 0.0003432631 -0.0580008 -0.03754056
v 0.0003426075 -0.1880006 -0.03754039
v -0.1249999 -0.1880001 -0.02600012
v 0.05368286 -0.05800033 -0.06423856
v 0.05368224 -0.1880003 -0.06423838
v -0.1165572 -0.188 -0.02591065
v -0.1065565 -0.05799985 -0.0259106
v 0.1008544 -0.06799984 -0.01585303
v 0.1008535 -0.1880002 -0.01585305
v 0.1182541 -0.007999897 -0.01850004
v 0.1182534 -0.188 -0.01850004
v 0.125001 -0.05800009 -0.02600029
v 0.1250001 -0.1880001 -0.02600011
v 0.1082541 -0.05800009 -0.1435004
v 0.1082533 -0.1880001 -0.1435001
v 0.06250089 -0.05800009 -0.2295164
v 0.06250012 -0.1880001 -0.2295161
v 8.34465E-07 -0.05799997 -0.2610005
v 1.192093E-07 -0.1880001 -0.2610001
v -0.06249917 -0.05799997 -0.2295165
v -0.06249988 -0.1880001 -0.2295161
v -0.1082524 -0.05800021 -0.1435004
v -0.1082531 -0.1880001 -0.1435001
v 0.095 0.04200006 -0.03100014
v 0.095 0.0286026 0.01899985
v -0.08500004 0.0286026 0.01899985
v -0.08500004 0.04200006 -0.03100014
v 0.095 -0.008000016 0.05560239
v -0.08500004 -0.008000016 0.05560239
v 0.095 -0.05799997 0.06899986
v -0.08500004 -0.05799997 0.06899986
v 0.095 -0.1079999 0.05560239
v -0.08500004 -0.1079999 0.05560239
v 0.095 -0.1446025 0.01899986
v -0.08500004 -0.1446025 0.01899986
v 0.095 -0.158 -0.03100015
v -0.08500004 -0.158 -0.03100015
v 0.095 -0.1446025 -0.08100016
v -0.08500004 -0.1446025 -0.08100016
v 0.095 -0.1079999 -0.1176027
v -0.08500004 -0.1079999 -0.1176027
v 0.095 -0.05799997 -0.1310001
v -0.08500004 -0.05799997 -0.1310001
v 0.095 -0.008000016 -0.1176027
v -0.08500004 -0.008000016 -0.1176027
v 0.095 0.0286026 -0.08100012
v -0.08500004 0.0286026 -0.08100012
v -0.005000055 0.02199996 0.1789999
v 0.02999997 0.02199996 0.1696216
v 0.02999997 -0.118 0.1696216
v -0.005000055 -0.118 0.1789998
v 0.05562171 0.02199996 0.1439999
v 0.05562171 -0.118 0.1439998
v 0.06499994 0.02200007 0.1089999
v 0.06499994 -0.118 0.1089998
v 0.05562171 0.02200007 0.07399987
v 0.05562171 -0.1179999 0.07399982
v 0.02999997 0.02200007 0.0483781
v 0.02999997 -0.1179999 0.04837804
v -0.005000055 0.02200007 0.03899987
v -0.005000055 -0.1179999 0.03899983
v -0.04000008 0.02200007 0.04837811
v -0.04000008 -0.1179999 0.04837806
v -0.06562185 0.02200007 0.07399988
v -0.06562185 -0.1179999 0.07399982
v -0.07500005 0.02200007 0.1089999
v -0.07500005 -0.118 0.1089998
v -0.06562185 0.02199996 0.1439999
v -0.06562185 -0.118 0.1439998
v -0.04000002 0.02199996 0.1696217
v -0.04000002 -0.118 0.1696216
vn -0.09168226 -2.990268E-07 -0.9957884
vn -0.4475918 -1.408597E-06 -0.894238
vn 0.2196428 8.721677E-07 0.9755804
vn 0.04621106 -6.337946E-08 -0.9989318
vn -0.1503977 -6.540334E-07 -0.9886256
vn -0.7434583 -2.564781E-06 -0.6687825
vn -0.9899953 -3.378035E-06 0.1411005
vn -0.8828723 -3.052805E-06 0.4696132
vn -0.4498868 -1.69218E-06 0.8930856
vn 0.4498871 1.258207E-06 0.8930854
vn 0.8828725 2.720358E-06 0.4696128
vn 0.9899954 3.076735E-06 0.1411001
vn 3.620249E-07 1 -2.543535E-06
vn -9.661535E-08 -1 1.413631E-06
vn 8.066209E-07 1 1.841437E-05
vn -7.895208E-06 -1 -1.634734E-05
vn -5.334904E-07 1 9.995398E-06
vn 4.470565E-07 -1 7.642378E-06
vn -4.953039E-07 1 1.072586E-05
vn 4.604821E-07 -1 -7.610465E-06
vn 0.9899953 -3.462376E-07 -0.1411002
vn 0.8828724 -3.078168E-07 -0.4696129
vn 0.4498869 -1.570008E-07 -0.8930855
vn -0.4498868 1.570008E-07 -0.8930855
vn -0.8828724 3.10468E-07 -0.469613
vn -0.9899953 3.461902E-07 -0.1411003
vn -0.9899953 3.461279E-07 0.1411004
vn -0.8828723 3.098621E-07 0.469613
vn -0.449887 1.60726E-07 0.8930855
vn 0.4498869 -1.608874E-07 0.8930856
vn 0.8828723 -3.101556E-07 0.469613
vn 0.9899953 -3.459207E-07 0.1411002
vn 4.703208E-07 1 6.40335E-14
vn -3.136071E-07 -1 -5.469264E-14
vn 0.09168204 8.925752E-07 0.9957883
vn 0.4475915 -1.061468E-06 0.8942381
vn -0.2196424 -2.004474E-07 -0.9755805
vn -0.04725219 0.001890069 0.9988812
vn 0.1503992 -9.1178E-07 0.9886253
vn 0.7434542 -3.490718E-06 0.6687869
vn 0.9899953 -6.5472E-06 -0.1411004
vn 0.8828725 -6.625282E-06 -0.4696129
vn 0.4498871 -5.15235E-06 -0.8930854
vn -0.4498871 -1.351138E-07 -0.8930854
vn -0.8828723 3.436105E-06 -0.469613
vn -0.9899953 4.574073E-06 -0.1411004
vn 1.859801E-07 1 2.292785E-06
vn -1.974392E-07 -1 -1.35914E-06
vn -0.4141878 0.08011407 -0.9066588
vn 7.601149E-06 -1 1.640183E-05
vn 0.0002727435 0.7119401 0.7022402
vn -7.411096E-07 -1 -7.587887E-06
vn 9.65691E-07 1 -8.204044E-06
vn -7.545388E-07 -1 7.664956E-06
vn -0.2325924 0.01789315 -0.9724098
vn -8.931842E-10 0.9659259 0.258819
vn 3.954504E-09 0.7071061 0.7071075
vn 2.296448E-09 0.2588193 0.9659258
vn 2.296448E-09 -0.2588193 0.9659258
vn -6.399701E-09 -0.707106 0.7071076
vn 8.912536E-10 -0.9659259 0.258819
vn 7.077792E-12 -0.9659259 -0.258819
vn -2.119571E-09 -0.7071059 -0.7071078
vn -1.76944E-08 -0.2588192 -0.9659258
vn -1.76944E-08 0.2588192 -0.9659258
vn 1.002858E-08 0.7071063 -0.7071073
vn -1.344924E-09 0.9659259 -0.2588191
vn 1 3.25342E-08 0
vn -1 2.942982E-08 0
vn 0.258819 -3.389001E-07 0.9659259
vn 0.7071068 -2.482398E-07 0.7071068
vn 0.9659259 -1.081716E-07 0.258819
vn 0.9659259 8.997776E-08 -0.258819
vn 0.7071068 2.543314E-07 -0.7071068
vn 0.258819 3.373067E-07 -0.9659259
vn -0.2588195 3.380659E-07 -0.9659258
vn -0.7071068 2.380366E-07 -0.7071068
vn -0.9659259 8.802837E-08 -0.2588191
vn -0.9659259 -6.858161E-08 0.2588191
vn -0.7071068 -2.466322E-07 0.7071068
vn -0.2588189 -3.372996E-07 0.9659259
vn 0 1 3.122355E-07
vn 0 -1 -3.713079E-07
vt -0.1726804 0.0381923
vt -0.1781836 0.02687177
vt -0.1601963 0.01812771
vt -0.1546931 0.02944824
vt -0.1768128 0.02857901
vt -0.1793692 0.02318978
vt -0.161299 0.0146184
vt -0.1587427 0.02000764
vt 0.1807054 0.02037627
vt 0.1732264 0.03614237
vt 0.1551565 0.02757054
vt 0.1626354 0.01180444
vt -0.1721754 0.04090676
vt -0.1820473 0.02151004
vt -0.1642229 0.01243852
vt -0.1543511 0.03183525
vt -0.1824305 0.01737517
vt -0.1831917 0.01578829
vt -0.165159 0.007138265
vt -0.1643978 0.008725136
vt -0.1732285 0.04083433
vt -0.1737045 0.03994487
vt -0.1560707 0.03050812
vt -0.1555948 0.03139757
vt -0.06188659 0.1605874
vt -0.07280999 0.1559456
vt -0.0649881 0.1375386
vt -0.0540647 0.1421804
vt 0.06671949 0.1594143
vt 0.05740996 0.1622873
vt 0.05151229 0.1431766
vt 0.0608218 0.1403037
vt 0.1660909 0.06176781
vt 0.1621452 0.06754762
vt 0.1456272 0.05627127
vt 0.1495729 0.05049146
vt 0.181084 0.01959179
vt 0.178084 0.02591437
vt 0.1600148 0.01734078
vt 0.1630148 0.01101821
vt 0.1683028 0.05593299
vt 0.1630684 0.06415019
vt 0.1462001 0.05340506
vt 0.1514345 0.04518785
vt 0.1359824 0.1074189
vt 0.1275451 0.1157663
vt 0.1134789 0.1015487
vt 0.1219162 0.09320126
vt -8.998021E-06 -0.04531796
vt -0.006570651 -0.05251976
vt -0.007433544 -0.05946456
vt -0.002366461 -0.06429154
vt 0.007272867 -0.06570728
vt 0.0189016 -0.06333247
vt 0.01290187 -0.05790224
vt 0.01362213 -0.05198107
vt 0.01049322 -0.03978889
vt -0.01049341 -0.03978872
vt -0.01362233 -0.05198089
vt -0.01290207 -0.05790206
vt -0.0189018 -0.06333227
vt -0.007273071 -0.0657071
vt 0.002366256 -0.06429134
vt 0.00743334 -0.05946438
vt 0.006570453 -0.05251957
vt 8.803091E-06 -0.04531777
vt 0.01890561 -0.06333115
vt 0.019385 -0.06244352
vt 0.01904905 -0.06071588
vt -0.01904875 -0.06071704
vt -0.01938471 -0.06244468
vt -0.01890532 -0.0633323
vt 0.01890392 -0.06333149
vt 0.01904737 -0.06071622
vt 0.01078781 -0.04058005
vt -0.01078476 -0.04058107
vt -0.01904416 -0.06071729
vt -0.0189007 -0.06333257
vt 0.01890406 -0.06333145
vt 0.01078794 -0.04058
vt 0.0129043 -0.05790125
vt -0.01290356 -0.05790146
vt -0.01078722 -0.04058021
vt -0.01890331 -0.06333166
vt 0.0573108 0.1408007
vt 0.04638738 0.1454425
vt -0.006019077 0.02211548
vt 0.004904337 0.01747369
vt -0.07093106 0.1371838
vt -0.08024059 0.1343109
vt -0.04072666 0.006269275
vt -0.03141714 0.009142213
vt -0.1536031 0.04458791
vt -0.1575489 0.0388081
vt -0.04687867 -0.03674389
vt -0.04293293 -0.03096409
vt -0.1539505 0.03012157
vt -0.1569505 0.023799
vt -0.0358875 -0.03364443
vt -0.0328875 -0.02732186
vt -0.1352812 0.07054596
vt -0.1405156 0.06232877
vt -0.02749781 -0.009664072
vt -0.02226342 -0.001446883
vt -0.1075488 0.1074154
vt -0.1159861 0.09906806
vt -0.02174295 0.003809353
vt -0.01330562 0.01215673
vt -0.0540642 0.1421804
vt -0.06498761 0.1375386
vt -0.0125812 0.0142115
vt -0.00165778 0.01885328
vt 0.06082147 0.1403036
vt 0.05151195 0.1431766
vt 0.01199799 0.01513501
vt 0.02130751 0.01226207
vt 0.1495728 0.05049164
vt 0.1456271 0.05627145
vt 0.03495685 -0.01928055
vt 0.03890258 -0.02506035
vt 0.1630149 0.01101829
vt 0.1600148 0.01734086
vt 0.03895184 -0.04010256
vt 0.04195185 -0.04642514
vt 0.1514343 0.04518817
vt 0.1461999 0.05340536
vt 0.03318206 -0.01858749
vt 0.03841646 -0.02680469
vt 0.1219158 0.09320162
vt 0.1134785 0.101549
vt 0.01923528 0.006290278
vt 0.0276726 -0.002057092
vt -8.492079E-06 -0.04531771
vt -0.006570136 -0.05251951
vt -0.007433017 -0.05946432
vt -0.002365929 -0.06429128
vt 0.007273398 -0.06570702
vt 0.01890213 -0.06333219
vt 0.02940434 -0.05780311
vt 0.03596598 -0.05060131
vt 0.03682886 -0.0436565
vt 0.03176177 -0.03882954
vt 0.02212244 -0.0374138
vt 0.01049371 -0.03978864
vt -0.01049371 -0.03978862
vt -0.02212243 -0.03741378
vt -0.03176177 -0.03882952
vt -0.03682885 -0.04365649
vt -0.03596597 -0.0506013
vt -0.02940433 -0.0578031
vt -0.01890212 -0.06333217
vt -0.007273389 -0.06570701
vt 0.002365939 -0.06429127
vt 0.007433027 -0.05946431
vt 0.006570145 -0.05251949
vt 8.501371E-06 -0.04531769
vt 0.1772689 0.01274269
vt 0.1717657 0.02406316
vt 0.160074 0.01837943
vt 0.1655773 0.007058954
vt 0.1700192 0.02656792
vt 0.1674629 0.03195719
vt 0.1557173 0.0263857
vt 0.1582736 0.02099643
vt -0.1691717 0.02835735
vt -0.1649053 0.007019504
vt -0.1574263 0.02278557
vt 0.1760172 0.01800881
vt 0.1656929 0.03605357
vt 0.1550026 0.0306021
vt 0.1648898 0.01121319
vt 0.1667247 0.03161972
vt 0.1713733 0.03580161
vt 0.1551439 0.02801647
vt 0.1559051 0.02642958
vt 0.1645279 0.05285322
vt 0.1596435 0.05138348
vt 0.1481816 0.04524949
vt 0.1486576 0.04436005
vt 0.06239413 0.1527654
vt 0.05147069 0.1574071
vt 0.04638655 0.1454425
vt 0.05731 0.1408008
vt -0.07476386 0.1496058
vt -0.0840734 0.1467329
vt -0.08024001 0.1343109
vt -0.07093048 0.1371839
vt -0.1643396 0.05191819
vt -0.1682853 0.0461384
vt -0.1575487 0.03880865
vt -0.1536029 0.04458844
vt -0.1656954 0.03569452
vt -0.1686954 0.02937194
vt -0.1569505 0.023799
vt -0.1539505 0.03012157
vt -0.1462453 0.07753058
vt -0.1514797 0.06931338
vt -0.1405153 0.06232893
vt -0.1352809 0.07054612
vt -0.1166911 0.1166572
vt -0.1251285 0.1083099
vt -0.1159855 0.09906829
vt -0.1075482 0.1074156
vt 0.02940474 -0.05780286
vt 0.03596638 -0.05060105
vt 0.03682926 -0.04365623
vt 0.03176216 -0.03882927
vt 0.02212282 -0.03741354
vt 0.01049409 -0.03978839
vt 0.01649384 -0.04521861
vt 0.01577358 -0.05113978
vt 0.01890253 -0.06333195
vt -0.01890234 -0.06333207
vt -0.01577341 -0.05113991
vt -0.01649366 -0.04521874
vt -0.01049392 -0.03978854
vt -0.02212265 -0.03741369
vt -0.03176197 -0.03882942
vt -0.03682906 -0.04365639
vt -0.03596619 -0.0506012
vt -0.02940455 -0.057803
vt -0.1640993 0.03548507
vt -0.1690241 0.03681327
vt -0.1643231 0.03269042
vt -0.01034714 -0.04240369
vt -0.01001121 -0.04067604
vt -0.01049062 -0.03978842
vt 0.1182391 0.02361595
vt 0.118271 0.02081252
vt 0.1302258 0.003804116
vt -0.01861105 -0.06253971
vt -0.01035151 -0.04240353
vt -0.01049495 -0.03978826
vt 0.01049232 -0.03978914
vt 0.01827192 -0.06159892
vt 0.01649204 -0.04521939
vt -0.01649222 -0.04521935
vt -0.01860845 -0.06254061
vt -0.0104925 -0.03978912
vt -0.1689611 0.02801308
vt -0.1759892 0.0131113
vt -0.1646442 0.006685384
vt 0.05716258 -0.02158289
vt 0.05248575 -0.0238015
vt 0.06020059 -0.04006439
vt 0.06487741 -0.03784578
vt 0.1229823 0.02308775
vt 0.1185555 0.02040472
vt 0.1278853 0.00501137
vt 0.1323121 0.007694401
vt 0.1616563 0.04225281
vt 0.1571696 0.03967119
vt 0.1661468 0.02406956
vt 0.1706334 0.02665117
vt 0.1675986 0.0182156
vt 0.1627768 0.01633258
vt 0.1693247 -0.0004342129
vt 0.1741465 0.001448806
vt 0.1251898 -0.03157775
vt 0.1200397 -0.032098
vt 0.1218487 -0.05000687
vt 0.1269989 -0.04948661
vt 0.03783716 -0.05316702
vt 0.03277701 -0.05207623
vt 0.02898398 -0.06967206
vt 0.03404413 -0.07076284
vt -0.05248575 -0.0238015
vt -0.05716258 -0.0215829
vt -0.06487741 -0.03784578
vt -0.06020059 -0.04006439
vt -0.1185555 0.02040474
vt -0.1229823 0.02308777
vt -0.1323121 0.007694419
vt -0.1278853 0.005011389
vt -0.1571696 0.03967119
vt -0.1616563 0.04225281
vt -0.1706334 0.02665118
vt -0.1661468 0.02406956
vt -0.1627768 0.01633258
vt -0.1675986 0.0182156
vt -0.1741464 0.001448813
vt -0.1693247 -0.0004342064
vt -0.1200396 -0.03209803
vt -0.1251898 -0.03157779
vt -0.1269989 -0.04948665
vt -0.1218487 -0.0500069
vt -0.03277704 -0.05207623
vt -0.03783718 -0.05316702
vt -0.03404416 -0.07076284
vt -0.02898401 -0.06967206
vt 0.09931052 0.1424756
vt 0.09420456 0.1416246
vt 0.09020818 0.1383347
vt 0.08839218 0.1334873
vt 0.08924317 0.1283814
vt 0.09253313 0.124385
vt 0.0973805 0.122569
vt 0.1024865 0.12342
vt 0.1064828 0.1267099
vt 0.1082988 0.1315573
vt 0.1074478 0.1366633
vt 0.1041579 0.1406596
vt -0.1041579 0.1406597
vt -0.1074478 0.1366633
vt -0.1082988 0.1315573
vt -0.1064828 0.1267099
vt -0.1024864 0.12342
vt -0.09738049 0.122569
vt -0.09253311 0.124385
vt -0.08924315 0.1283814
vt -0.08839217 0.1334873
vt -0.09020816 0.1383347
vt -0.09420454 0.1416246
vt -0.0993105 0.1424756
vt 0.1813565 0.02112018
vt 0.1798087 0.02439644
vt 0.1671502 0.01841622
vt 0.168698 0.01513996
vt 0.1774591 0.03380757
vt 0.1757848 0.03702101
vt 0.163369 0.03055205
vt 0.1650433 0.0273386
vt 0.1537874 0.08553262
vt 0.1514764 0.08832342
vt 0.1406935 0.07939418
vt 0.1430046 0.0766034
vt 0.03357098 0.1697649
vt 0.03000014 0.1703801
vt 0.02762284 0.1565835
vt 0.03119368 0.1559682
vt -0.1343937 0.1116258
vt -0.1370748 0.1091883
vt -0.1276571 0.0988294
vt -0.124976 0.1012669
vt -0.1729686 0.0460664
vt -0.1747687 0.04292169
vt -0.1626185 0.0359667
vt -0.1608184 0.03911141
vt -0.1798087 0.02439643
vt -0.1813565 0.02112018
vt -0.168698 0.01513996
vt -0.1671503 0.01841621
vt -0.1757848 0.03702101
vt -0.1774591 0.03380756
vt -0.1650433 0.0273386
vt -0.163369 0.03055205
vt -0.1514764 0.08832341
vt -0.1537874 0.08553261
vt -0.1430046 0.07660338
vt -0.1406936 0.07939418
vt -0.03000013 0.1703801
vt -0.03357097 0.1697648
vt -0.03119367 0.1559682
vt -0.02762283 0.1565835
vt 0.1370748 0.1091883
vt 0.1343937 0.1116258
vt 0.124976 0.1012669
vt 0.1276571 0.09882938
vt 0.1747687 0.04292167
vt 0.1729686 0.04606638
vt 0.1608184 0.0391114
vt 0.1626185 0.03596669
vt -0.00237922 -0.06190679
vt 0.0008954465 -0.06345795
vt 0.004506966 -0.06316396
vt 0.007487639 -0.0611036
vt 0.009038795 -0.05782893
vt 0.008744804 -0.05421741
vt 0.006684439 -0.05123674
vt 0.003409776 -0.04968558
vt -0.0002017438 -0.04997957
vt -0.003182417 -0.05203994
vt -0.004733575 -0.0553146
vt -0.004439582 -0.05892612
vt 0.004439572 -0.05892612
vt 0.004733564 -0.05531459
vt 0.003182406 -0.05203993
vt 0.0002017334 -0.04997957
vt -0.003409787 -0.04968558
vt -0.00668445 -0.05123673
vt -0.008744815 -0.05421741
vt -0.009038806 -0.05782893
vt -0.007487651 -0.06110359
vt -0.004506978 -0.06316395
vt -0.0008954586 -0.06345795
vt 0.00237921 -0.06190679
o group1775330302
g mesh1775330302
usemtl mat15
f 4/4/1 3/3/1 2/2/1 1/1/1
f 3/8/2 6/7/2 5/6/2 2/5/2
f 6/12/3 8/11/3 7/10/3 5/9/3
f 8/16/4 10/15/4 9/14/4 7/13/4
f 10/20/5 12/19/5 11/18/5 9/17/5
f 12/24/6 14/23/6 13/22/6 11/21/6
f 14/28/7 16/27/7 15/26/7 13/25/7
f 16/32/8 18/31/8 17/30/8 15/29/8
f 18/36/9 20/35/9 19/34/9 17/33/9
f 20/40/10 22/39/10 21/38/10 19/37/10
f 22/44/11 24/43/11 23/42/11 21/41/11
f 24/48/12 4/47/12 1/46/12 23/45/12
f 1/57/13 2/56/13 5/55/13 13/54/13 15/53/13 17/52/13 19/51/13 21/50/13 23/49/13
f 24/66/14 22/65/14 20/64/14 18/63/14 16/62/14 14/61/14 6/60/14 3/59/14 4/58/14
f 9/69/15 11/68/15 13/67/15
f 14/72/16 12/71/16 10/70/16
f 7/75/17 9/74/17 13/73/17
f 14/78/18 10/77/18 8/76/18
f 5/81/19 7/80/19 13/79/19
f 14/84/20 8/83/20 6/82/20
o group1204737789
g mesh1204737789
usemtl mat14
f 28/88/21 27/87/21 26/86/21 25/85/21
f 27/92/22 30/91/22 29/90/22 26/89/22
f 30/96/23 32/95/23 31/94/23 29/93/23
f 32/100/24 34/99/24 33/98/24 31/97/24
f 34/104/25 36/103/25 35/102/25 33/101/25
f 36/108/26 38/107/26 37/106/26 35/105/26
f 38/112/27 40/111/27 39/110/27 37/109/27
f 40/116/28 42/115/28 41/114/28 39/113/28
f 42/120/29 44/119/29 43/118/29 41/117/29
f 44/124/30 46/123/30 45/122/30 43/121/30
f 46/128/31 48/127/31 47/126/31 45/125/31
f 48/132/32 28/131/32 25/130/32 47/129/32
f 25/144/33 26/143/33 29/142/33 31/141/33 33/140/33 35/139/33 37/138/33 39/137/33 41/136/33 43/135/33 45/134/33 47/133/33
f 48/156/34 46/155/34 44/154/34 42/153/34 40/152/34 38/151/34 36/150/34 34/149/34 32/148/34 30/147/34 27/146/34 28/145/34
o group1472626931
g mesh1472626931
usemtl mat8
f 52/160/35 51/159/35 50/158/35 49/157/35
f 51/164/36 54/163/36 53/162/36 50/161/36
f 54/167/37 55/166/37 53/165/37
f 55/171/38 58/170/38 57/169/38 56/168/38
f 58/175/39 60/174/39 59/173/39 57/172/39
f 60/179/40 62/178/40 61/177/40 59/176/40
f 62/183/41 64/182/41 63/181/41 61/180/41
f 64/187/42 66/186/42 65/185/42 63/184/42
f 66/191/43 68/190/43 67/189/43 65/188/43
f 68/195/44 70/194/44 69/193/44 67/192/44
f 70/199/45 72/198/45 71/197/45 69/196/45
f 72/203/46 52/202/46 49/201/46 71/200/46
f 49/212/47 50/211/47 53/210/47 61/209/47 63/208/47 65/207/47 67/206/47 69/205/47 71/204/47
f 72/221/48 70/220/48 68/219/48 66/218/48 64/217/48 62/216/48 54/215/48 51/214/48 52/213/48
f 57/224/49 59/223/49 61/222/49
f 62/227/50 60/226/50 58/225/50
f 56/230/51 57/229/51 61/228/51
f 62/233/52 58/232/52 55/231/52
f 53/236/53 56/235/53 61/234/53
f 62/239/54 55/238/54 54/237/54
f 55/242/55 56/241/55 53/240/55
o group1971879220
g mesh1971879220
usemtl mat17
f 76/246/56 75/245/56 74/244/56 73/243/56
f 75/250/57 78/249/57 77/248/57 74/247/57
f 78/254/58 80/253/58 79/252/58 77/251/58
f 80/258/59 82/257/59 81/256/59 79/255/59
f 82/262/60 84/261/60 83/260/60 81/259/60
f 84/266/61 86/265/61 85/264/61 83/263/61
f 86/270/62 88/269/62 87/268/62 85/267/62
f 88/274/63 90/273/63 89/272/63 87/271/63
f 90/278/64 92/277/64 91/276/64 89/275/64
f 92/282/65 94/281/65 93/280/65 91/279/65
f 94/286/66 96/285/66 95/284/66 93/283/66
f 96/290/67 76/289/67 73/288/67 95/287/67
f 73/302/68 74/301/68 77/300/68 79/299/68 81/298/68 83/297/68 85/296/68 87/295/68 89/294/68 91/293/68 93/292/68 95/291/68
f 96/314/69 94/313/69 92/312/69 90/311/69 88/310/69 86/309/69 84/308/69 82/307/69 80/306/69 78/305/69 75/304/69 76/303/69
o group425055828
g mesh425055828
usemtl mat23
f 100/318/70 99/317/70 98/316/70 97/315/70
f 99/322/71 102/321/71 101/320/71 98/319/71
f 102/326/72 104/325/72 103/324/72 101/323/72
f 104/330/73 106/329/73 105/328/73 103/327/73
f 106/334/74 108/333/74 107/332/74 105/331/74
f 108/338/75 110/337/75 109/336/75 107/335/75
f 110/342/76 112/341/76 111/340/76 109/339/76
f 112/346/77 114/345/77 113/344/77 111/343/77
f 114/350/78 116/349/78 115/348/78 113/347/78
f 116/354/79 118/353/79 117/352/79 115/351/79
f 118/358/80 120/357/80 119/356/80 117/355/80
f 120/362/81 100/361/81 97/360/81 119/359/81
f 97/374/82 98/373/82 101/372/82 103/371/82 105/370/82 107/369/82 109/368/82 111/367/82 113/366/82 115/365/82 117/364/82 119/363/82
f 120/386/83 118/385/83 116/384/83 114/383/83 112/382/83 110/381/83 108/380/83 106/379/83 104/378/83 102/377/83 99/376/83 100/375/83
